<svg width="24" height="25" viewBox="0 0 24 25" fill="none" xmlns="http://www.w3.org/2000/svg">
<path d="M0.66748 22.0571V9.2591C0.66748 8.8088 0.768048 8.3822 0.969182 7.9793C1.17032 7.5764 1.44747 7.2446 1.80063 6.9839L10.2993 0.584912C10.795 0.205713 11.3616 0.0161133 11.999 0.0161133C12.6364 0.0161133 13.203 0.205713 13.6988 0.584912L22.1974 6.9839C22.5515 7.2446 22.8291 7.5764 23.0303 7.9793C23.2314 8.3822 23.3315 8.8088 23.3306 9.2591V22.0571C23.3306 22.8392 23.0529 23.5089 22.4977 24.0664C21.9424 24.6238 21.2758 24.902 20.4977 24.9011H16.2483C15.847 24.9011 15.5109 24.7646 15.2398 24.4915C14.9688 24.2185 14.8329 23.881 14.8319 23.4791V16.3691C14.8319 15.9662 14.6959 15.6287 14.424 15.3566C14.152 15.0845 13.8158 14.948 13.4155 14.9471H10.5826C10.1813 14.9471 9.84508 15.0836 9.57407 15.3566C9.30306 15.6296 9.16708 15.9671 9.16614 16.3691V23.4791C9.16614 23.882 9.03016 24.2199 8.7582 24.493C8.48624 24.766 8.15007 24.902 7.74969 24.9011H3.50037C2.72132 24.9011 2.05465 24.6228 1.50035 24.0664C0.946047 23.5099 0.668425 22.8401 0.66748 22.0571Z" fill="black"/>
</svg>
