<svg width="220" height="23" viewBox="0 0 220 23" fill="none" xmlns="http://www.w3.org/2000/svg">
<path d="M11.49 22.24C9.91 22.24 8.47 21.97 7.17 21.43C5.89 20.89 4.78 20.13 3.84 19.15C2.92 18.19 2.2 17.04 1.68 15.7C1.16 14.34 0.9 12.86 0.9 11.26C0.9 9.64 1.16 8.16 1.68 6.82C2.2 5.48 2.92 4.32 3.84 3.34C4.78 2.36 5.89 1.6 7.17 1.06C8.47 0.519999 9.91 0.249999 11.49 0.249999C13.07 0.249999 14.52 0.519999 15.84 1.06C17.16 1.6 18.28 2.36 19.2 3.34C20.14 4.32 20.86 5.48 21.36 6.82C21.86 8.16 22.11 9.64 22.11 11.26C22.11 12.86 21.86 14.34 21.36 15.7C20.86 17.04 20.14 18.19 19.2 19.15C18.28 20.13 17.16 20.89 15.84 21.43C14.52 21.97 13.07 22.24 11.49 22.24ZM11.49 19.69C13.07 19.69 14.43 19.35 15.57 18.67C16.71 17.99 17.58 17.02 18.18 15.76C18.8 14.48 19.11 12.98 19.11 11.26C19.11 9.54 18.8 8.05 18.18 6.79C17.58 5.51 16.71 4.52 15.57 3.82C14.43 3.12 13.07 2.77 11.49 2.77C9.93 2.77 8.58 3.12 7.44 3.82C6.3 4.52 5.42 5.51 4.8 6.79C4.18 8.05 3.87 9.54 3.87 11.26C3.87 12.98 4.18 14.47 4.8 15.73C5.42 16.99 6.3 17.97 7.44 18.67C8.58 19.35 9.93 19.69 11.49 19.69ZM29.148 22V0.49H35.538C37.258 0.49 38.708 0.749999 39.888 1.27C41.088 1.79 41.998 2.55 42.618 3.55C43.238 4.53 43.548 5.73 43.548 7.15C43.548 8.53 43.218 9.73 42.558 10.75C41.918 11.77 40.998 12.56 39.798 13.12C38.598 13.68 37.178 13.96 35.538 13.96H32.088V22H29.148ZM32.088 11.65H35.538C36.598 11.65 37.508 11.47 38.268 11.11C39.028 10.73 39.608 10.21 40.008 9.55C40.428 8.87 40.638 8.07 40.638 7.15C40.638 5.79 40.208 4.73 39.348 3.97C38.508 3.19 37.238 2.8 35.538 2.8H32.088V11.65ZM26.988 22V20.77C26.988 20.59 27.028 20.45 27.108 20.35C27.188 20.23 27.308 20.16 27.468 20.14L29.718 19.66L30.048 22H26.988ZM30.048 0.49L29.718 2.83L27.468 2.35C27.308 2.31 27.188 2.24 27.108 2.14C27.028 2.04 26.988 1.9 26.988 1.72V0.49H30.048ZM31.188 22L31.518 19.66L33.768 20.14C33.928 20.16 34.048 20.23 34.128 20.35C34.208 20.45 34.248 20.59 34.248 20.77V22H31.188ZM50.4586 22V0.49H63.7186V2.86H53.3986V10.03H61.3186V12.31H53.3986V19.63H63.7186V22H50.4586ZM61.2586 20.38L61.7086 17.38C61.7486 17.2 61.8186 17.08 61.9186 17.02C62.0386 16.94 62.1786 16.9 62.3386 16.9H63.7186V19.63L61.2586 20.38ZM61.2586 2.11L63.7186 2.86V5.59H62.3386C62.1786 5.59 62.0386 5.56 61.9186 5.5C61.8186 5.42 61.7486 5.29 61.7086 5.11L61.2586 2.11ZM51.3586 0.49L51.0286 2.83L48.7786 2.35C48.6186 2.31 48.4986 2.24 48.4186 2.14C48.3386 2.04 48.2986 1.9 48.2986 1.72V0.49H51.3586ZM48.2986 22V20.77C48.2986 20.59 48.3386 20.45 48.4186 20.35C48.4986 20.23 48.6186 20.16 48.7786 20.14L51.0286 19.66L51.3586 22H48.2986ZM71.2125 22V0.49H72.7125C72.9725 0.49 73.1725 0.519999 73.3125 0.579999C73.4525 0.639999 73.5925 0.779999 73.7325 0.999999L86.1825 17.2C86.1425 16.94 86.1125 16.69 86.0925 16.45C86.0925 16.19 86.0925 15.95 86.0925 15.73V0.49H88.6425V22H87.1725C86.9525 22 86.7625 21.96 86.6025 21.88C86.4625 21.8 86.3125 21.66 86.1525 21.46L73.7025 5.29C73.7225 5.53 73.7325 5.77 73.7325 6.01C73.7525 6.25 73.7625 6.47 73.7625 6.67V22H71.2125ZM69.0525 22V20.77C69.0525 20.59 69.0925 20.45 69.1725 20.35C69.2525 20.23 69.3725 20.16 69.5325 20.14L71.7825 19.66L72.1125 22H69.0525ZM73.1625 22L73.4925 19.66L75.7425 20.14C75.9025 20.16 76.0225 20.23 76.1025 20.35C76.1825 20.45 76.2225 20.59 76.2225 20.77V22H73.1625ZM72.1125 0.49L71.7825 2.83L69.5325 2.35C69.3725 2.31 69.2525 2.24 69.1725 2.14C69.0925 2.04 69.0525 1.9 69.0525 1.72V0.49H72.1125ZM86.6925 0.49L86.3625 2.83L84.1125 2.35C83.9525 2.31 83.8325 2.24 83.7525 2.14C83.6725 2.04 83.6325 1.9 83.6325 1.72V0.49H86.6925ZM90.8025 0.49V1.72C90.8025 1.9 90.7625 2.04 90.6825 2.14C90.6025 2.24 90.4825 2.31 90.3225 2.35L88.0725 2.83L87.7425 0.49H90.8025ZM106.102 22.24C104.502 22.24 103.042 21.97 101.722 21.43C100.422 20.87 99.3023 20.06 98.3623 19C97.4623 17.96 96.7923 16.78 96.3523 15.46C95.9323 14.12 95.7223 12.74 95.7223 11.32C95.7223 9.66 95.9823 8.16 96.5023 6.82C97.0423 5.46 97.7823 4.3 98.7223 3.34C99.6823 2.36 100.812 1.6 102.112 1.06C103.432 0.519999 104.862 0.249999 106.402 0.249999C107.222 0.249999 108.002 0.319999 108.742 0.459998C109.502 0.599999 110.252 0.789999 110.992 1.03C111.732 1.27 112.482 1.54 113.242 1.84V4.03L111.142 3.64C110.522 3.42 109.832 3.22 109.072 3.04C108.312 2.86 107.492 2.77 106.612 2.77C105.012 2.77 103.612 3.13 102.412 3.85C101.232 4.55 100.312 5.54 99.6523 6.82C99.0123 8.1 98.6923 9.6 98.6923 11.32C98.6923 12.9 98.9823 14.33 99.5623 15.61C100.142 16.87 101.012 17.87 102.172 18.61C103.352 19.35 104.802 19.72 106.522 19.72C107.482 19.72 108.372 19.58 109.192 19.3C110.032 19 110.852 18.49 111.652 17.77C111.752 17.69 111.842 17.64 111.922 17.62C112.002 17.58 112.082 17.56 112.162 17.56C112.322 17.56 112.462 17.62 112.582 17.74L113.722 19C112.922 19.92 111.892 20.69 110.632 21.31C109.392 21.93 107.882 22.24 106.102 22.24ZM110.782 3.28L113.242 4.03V6.76H111.862C111.702 6.76 111.562 6.73 111.442 6.67C111.342 6.59 111.272 6.46 111.232 6.28L110.782 3.28ZM121.041 22V0.49H123.981V19.54H133.971V22H121.041ZM131.511 20.29L131.961 17.29C132.001 17.11 132.071 16.99 132.171 16.93C132.291 16.85 132.431 16.81 132.591 16.81H133.971V19.54L131.511 20.29ZM118.881 22V20.77C118.881 20.59 118.921 20.45 119.001 20.35C119.081 20.23 119.201 20.16 119.361 20.14L121.611 19.66L121.941 22H118.881ZM121.941 0.49L121.611 2.83L119.361 2.35C119.201 2.31 119.081 2.24 119.001 2.14C118.921 2.04 118.881 1.9 118.881 1.72V0.49H121.941ZM126.171 0.49V1.72C126.171 1.9 126.131 2.04 126.051 2.14C125.971 2.24 125.851 2.31 125.691 2.35L123.441 2.83L123.111 0.49H126.171ZM147.556 22.24C145.976 22.24 144.536 21.97 143.236 21.43C141.956 20.89 140.846 20.13 139.906 19.15C138.986 18.19 138.266 17.04 137.746 15.7C137.226 14.34 136.966 12.86 136.966 11.26C136.966 9.64 137.226 8.16 137.746 6.82C138.266 5.48 138.986 4.32 139.906 3.34C140.846 2.36 141.956 1.6 143.236 1.06C144.536 0.519999 145.976 0.249999 147.556 0.249999C149.136 0.249999 150.586 0.519999 151.906 1.06C153.226 1.6 154.346 2.36 155.266 3.34C156.206 4.32 156.926 5.48 157.426 6.82C157.926 8.16 158.176 9.64 158.176 11.26C158.176 12.86 157.926 14.34 157.426 15.7C156.926 17.04 156.206 18.19 155.266 19.15C154.346 20.13 153.226 20.89 151.906 21.43C150.586 21.97 149.136 22.24 147.556 22.24ZM147.556 19.69C149.136 19.69 150.496 19.35 151.636 18.67C152.776 17.99 153.646 17.02 154.246 15.76C154.866 14.48 155.176 12.98 155.176 11.26C155.176 9.54 154.866 8.05 154.246 6.79C153.646 5.51 152.776 4.52 151.636 3.82C150.496 3.12 149.136 2.77 147.556 2.77C145.996 2.77 144.646 3.12 143.506 3.82C142.366 4.52 141.486 5.51 140.866 6.79C140.246 8.05 139.936 9.54 139.936 11.26C139.936 12.98 140.246 14.47 140.866 15.73C141.486 16.99 142.366 17.97 143.506 18.67C144.646 19.35 145.996 19.69 147.556 19.69ZM169.714 22.24C168.954 22.24 168.174 22.17 167.374 22.03C166.594 21.91 165.864 21.76 165.184 21.58C164.524 21.4 163.994 21.24 163.594 21.1V18.43L165.904 19C166.724 19.3 167.414 19.51 167.974 19.63C168.554 19.75 169.214 19.81 169.954 19.81C170.854 19.81 171.624 19.65 172.264 19.33C172.924 19.01 173.434 18.56 173.794 17.98C174.154 17.4 174.334 16.74 174.334 16C174.334 15.3 174.184 14.73 173.884 14.29C173.584 13.85 173.184 13.5 172.684 13.24C172.184 12.96 171.624 12.73 171.004 12.55C170.404 12.35 169.784 12.14 169.144 11.92C168.324 11.64 167.514 11.29 166.714 10.87C165.934 10.45 165.294 9.89 164.794 9.19C164.294 8.47 164.044 7.52 164.044 6.34C164.044 5.16 164.314 4.11 164.854 3.19C165.414 2.27 166.194 1.55 167.194 1.03C168.194 0.509999 169.374 0.249999 170.734 0.249999C171.594 0.249999 172.544 0.359999 173.584 0.579999C174.644 0.779998 175.644 1.08 176.584 1.48V3.7L174.304 3.25C173.664 3.07 173.024 2.93 172.384 2.83C171.764 2.73 171.214 2.68 170.734 2.68C169.514 2.68 168.544 2.99 167.824 3.61C167.104 4.21 166.744 4.99 166.744 5.95C166.744 6.79 166.994 7.44 167.494 7.9C168.014 8.36 168.664 8.73 169.444 9.01C170.244 9.29 171.064 9.58 171.904 9.88C172.844 10.2 173.704 10.58 174.484 11.02C175.264 11.46 175.884 12.04 176.344 12.76C176.824 13.46 177.064 14.4 177.064 15.58C177.064 16.84 176.764 17.98 176.164 19C175.584 20 174.744 20.79 173.644 21.37C172.564 21.95 171.254 22.24 169.714 22.24ZM174.124 2.95L176.584 3.7V6.43H175.204C175.044 6.43 174.904 6.4 174.784 6.34C174.684 6.26 174.614 6.13 174.574 5.95L174.124 2.95ZM166.054 19.18L163.594 18.43V15.7H164.974C165.134 15.7 165.274 15.74 165.394 15.82C165.514 15.88 165.584 16 165.604 16.18L166.054 19.18ZM184.562 22V0.49H197.822V2.86H187.502V10.03H195.422V12.31H187.502V19.63H197.822V22H184.562ZM195.362 20.38L195.812 17.38C195.852 17.2 195.922 17.08 196.022 17.02C196.142 16.94 196.282 16.9 196.442 16.9H197.822V19.63L195.362 20.38ZM195.362 2.11L197.822 2.86V5.59H196.442C196.282 5.59 196.142 5.56 196.022 5.5C195.922 5.42 195.852 5.29 195.812 5.11L195.362 2.11ZM185.462 0.49L185.132 2.83L182.882 2.35C182.722 2.31 182.602 2.24 182.522 2.14C182.442 2.04 182.402 1.9 182.402 1.72V0.49H185.462ZM182.402 22V20.77C182.402 20.59 182.442 20.45 182.522 20.35C182.602 20.23 182.722 20.16 182.882 20.14L185.132 19.66L185.462 22H182.402ZM209.726 22V2.95H202.736V0.49H219.566V2.95H212.636V22H209.726ZM207.566 22V20.77C207.566 20.59 207.606 20.45 207.686 20.35C207.766 20.23 207.886 20.16 208.046 20.14L210.296 19.66L210.626 22H207.566ZM211.736 22L212.066 19.66L214.316 20.14C214.476 20.16 214.596 20.23 214.676 20.35C214.756 20.45 214.796 20.59 214.796 20.77V22H211.736ZM217.106 2.2L219.566 2.95V5.68H218.186C218.026 5.68 217.886 5.65 217.766 5.59C217.666 5.51 217.596 5.38 217.556 5.2L217.106 2.2ZM205.196 2.2L204.746 5.2C204.726 5.38 204.656 5.51 204.536 5.59C204.416 5.65 204.276 5.68 204.116 5.68H202.736V2.95L205.196 2.2Z" fill="black"/>
</svg>
