<svg width="35" height="35" viewBox="0 0 35 35" fill="none" xmlns="http://www.w3.org/2000/svg">
<g clip-path="url(#clip0_22_5)">
<path d="M27.5627 24.466C29.891 21.3545 30.9541 17.4766 30.5382 13.6128C30.1222 9.74893 28.258 6.18612 25.3207 3.64152C22.3835 1.09692 18.5914 -0.240548 14.7078 -0.101652C10.8241 0.0372435 7.13722 1.64219 4.38929 4.39011C1.64136 7.13804 0.0364196 10.8249 -0.102476 14.7086C-0.241372 18.5923 1.0961 22.3844 3.6407 25.3216C6.1853 28.2588 9.7481 30.123 13.6119 30.539C17.4758 30.955 21.3537 29.8918 24.4652 27.5635L31.9027 35.001L35.0002 31.9094L27.5627 24.466ZM15.3127 26.251C13.1495 26.251 11.0348 25.6096 9.23615 24.4077C7.43749 23.2059 6.0356 21.4977 5.20777 19.4991C4.37993 17.5006 4.16333 15.3014 4.58536 13.1797C5.00738 11.0581 6.04908 9.10918 7.57872 7.57954C9.10835 6.0499 11.0572 5.00821 13.1789 4.58618C15.3006 4.16416 17.4997 4.38076 19.4983 5.20859C21.4969 6.03642 23.2051 7.43831 24.4069 9.23697C25.6087 11.0356 26.2502 13.1503 26.2502 15.3135C26.2475 18.2135 25.0943 20.9939 23.0437 23.0445C20.9931 25.0951 18.2127 26.2483 15.3127 26.251Z" fill="#575757"/>
</g>
<defs>
<clipPath id="clip0_22_5">
<rect width="35" height="35" fill="white"/>
</clipPath>
</defs>
</svg>
